
<svg width="500" height="300" viewBox="0 0 500 300" fill="none" xmlns="http://www.w3.org/2000/svg">
  <rect width="500" height="300" rx="8" fill="#F9F9F9"/>
  
  <!-- Books -->
  <rect x="50" y="100" width="120" height="160" rx="4" fill="#FFC107"/>
  <rect x="60" y="80" width="120" height="160" rx="4" fill="#7966E3"/>
  <rect x="70" y="60" width="120" height="160" rx="4" fill="#FFE966"/>
  
  <!-- Laptop -->
  <rect x="250" y="120" width="180" height="120" rx="8" fill="#333333"/>
  <rect x="260" y="130" width="160" height="100" rx="4" fill="#FFFFFF"/>
  
  <!-- Screen content -->
  <rect x="275" y="145" width="130" height="10" rx="2" fill="#E0E0E0"/>
  <rect x="275" y="165" width="130" height="10" rx="2" fill="#E0E0E0"/>
  <rect x="275" y="185" width="80" height="10" rx="2" fill="#E0E0E0"/>
  
  <!-- Magnifying glass -->
  <circle cx="400" cy="80" r="25" stroke="#7966E3" stroke-width="8" fill="none"/>
  <line x1="380" y1="100" x2="360" y2="120" stroke="#7966E3" stroke-width="8" stroke-linecap="round"/>
  
  <!-- Document with checkmark -->
  <rect x="150" y="180" width="60" height="80" rx="4" fill="#FFFFFF" stroke="#333333" stroke-width="2"/>
  <line x1="160" y1="200" x2="200" y2="200" stroke="#E0E0E0" stroke-width="2"/>
  <line x1="160" y1="220" x2="200" y2="220" stroke="#E0E0E0" stroke-width="2"/>
  <line x1="160" y1="240" x2="180" y2="240" stroke="#E0E0E0" stroke-width="2"/>
  <path d="M420 180L430 190L450 170" stroke="#4CAF50" stroke-width="4" stroke-linecap="round" stroke-linejoin="round"/>
</svg>
